<?xml version="1.0" encoding="utf-8"?><svg xmlns="http://www.w3.org/2000/svg" xmlns:xlink="http://www.w3.org/1999/xlink"><symbol fill="none" viewBox="0 0 24 24" id="calendar" xmlns="http://www.w3.org/2000/svg"><path d="M19 4H5a2 2 0 0 0-2 2v14a2 2 0 0 0 2 2h14a2 2 0 0 0 2-2V6a2 2 0 0 0-2-2zm-3-2v4M8 2v4m-5 4h18" stroke="#FF6847" stroke-width="2" stroke-linecap="round" stroke-linejoin="round"/></symbol><symbol fill="none" viewBox="0 0 24 24" id="map-pin" xmlns="http://www.w3.org/2000/svg"><path d="M21 10c0 7-9 13-9 13s-9-6-9-13a9 9 0 1 1 18 0z" stroke="#FF6847" stroke-width="2" stroke-linecap="round" stroke-linejoin="round"/><path d="M12 12a3 3 0 1 0 0-6 3 3 0 0 0 0 6z" stroke="#FF6847" stroke-width="2" stroke-linecap="round" stroke-linejoin="round"/></symbol><symbol fill="none" viewBox="0 0 24 24" id="navigation" xmlns="http://www.w3.org/2000/svg"><path d="M12.5 22.083a9.583 9.583 0 0 0 0-19.166 9.583 9.583 0 1 0 0 19.166zm9.583-9.583H18.25m-11.5 0H2.917M12.5 6.75V2.917m0 19.166V18.25" stroke="#CBCBCB" stroke-width="2" stroke-linecap="round" stroke-linejoin="round"/></symbol><symbol viewBox="0 0 492 492" id="plus" xmlns="http://www.w3.org/2000/svg"><path d="M465.064 207.566h.028-180.656V27.25c0-14.84-12.016-27.248-26.856-27.248h-23.116c-14.836 0-26.904 12.408-26.904 27.248v180.316H26.908c-14.832 0-26.908 12-26.908 26.844v23.248c0 14.832 12.072 26.78 26.908 26.78h180.656v180.968c0 14.832 12.064 26.592 26.904 26.592h23.116c14.84 0 26.856-11.764 26.856-26.592V284.438h180.624c14.84 0 26.936-11.952 26.936-26.78V234.41c0-14.844-12.096-26.844-26.936-26.844z"/></symbol><symbol fill="none" viewBox="0 0 24 24" id="user-plus" xmlns="http://www.w3.org/2000/svg"><g clip-path="url(#eclip0)"><path d="M11.5 24C17.841 24 23 18.841 23 12.5S17.841 1 11.5 1 0 6.159 0 12.5 5.159 24 11.5 24zm0-1.854c-2.21 0-4.25-.75-5.878-2.005.724-1.626 2.357-2.72 4.165-2.72h3.394c1.817 0 3.457 1.1 4.179 2.734a9.595 9.595 0 0 1-5.86 1.991zm-3.01-10.91c0-1.66 1.35-3.01 3.01-3.01 1.66 0 3.01 1.35 3.01 3.01 0 1.66-1.35 3.01-3.01 3.01-1.66 0-3.01-1.35-3.01-3.01zm3.01-8.382c5.32 0 9.646 4.327 9.646 9.646 0 2.422-.9 4.637-2.379 6.332a6.47 6.47 0 0 0-5.104-3.245 4.865 4.865 0 0 0 2.701-4.35A4.87 4.87 0 0 0 11.5 6.371a4.87 4.87 0 0 0-4.864 4.864 4.866 4.866 0 0 0 2.699 4.35 6.46 6.46 0 0 0-5.117 3.23A9.602 9.602 0 0 1 1.854 12.5c0-5.32 4.327-9.646 9.646-9.646z" fill="#FF6847"/></g><defs><clipPath id="eclip0"><path fill="#fff" d="M0 0h24v24H0z"/></clipPath></defs></symbol></svg>