<svg width="1400" height="526" fill="none" xmlns="http://www.w3.org/2000/svg"><g clip-path="url(#clip0)"><path fill="#fff" d="M0 0h1400v526H0z"/><path fill="#EEF9FC" d="M0 158h1400v368H0z"/><g opacity=".8"><path opacity=".43" d="M829.238 301.423v-40.828l-27.733 30.3v50.33h-17.846v-72.156h-4.494L766.197 257l-12.967 12.069h-4.494v97.32H683v53.026h189.505v-118.12h-43.267v.128zm-50.073 25.935h-25.807v-2.696h25.807v2.696zm0-5.264h-25.807v-2.696h25.807v2.696zm0-5.392h-25.807v-2.696h25.807v2.696zm0-5.264h-25.807v-2.696h25.807v2.696zm0-5.264h-25.807v-2.696h25.807v2.696zm0-5.264h-25.807v-2.568h25.807v2.568zm0-5.264h-25.807v-2.696h25.807v2.696zm0-5.264h-25.807v-2.696h25.807v2.696zm0-5.264h-25.807v-2.697h25.807v2.697zm0-5.264h-25.807v-2.697h25.807v2.697zm0-5.264h-25.807v-2.697h25.807v2.697zm46.606 128.391h-2.696V273.306l2.696-2.953v132.628zm199.259-101.558v-40.828l-27.728 30.3v50.33h-17.847v-72.156h-4.494L961.994 257l-12.968 12.069h-4.493v97.32h-65.736v53.026H1068.3v-118.12h-43.27v.128zm-50.197 25.935h-25.807v-2.696h25.807v2.696zm0-5.264h-25.807v-2.696h25.807v2.696zm0-5.392h-25.807v-2.696h25.807v2.696zm0-5.264h-25.807v-2.696h25.807v2.696zm0-5.264h-25.807v-2.696h25.807v2.696zm0-5.264h-25.807v-2.568h25.807v2.568zm0-5.264h-25.807v-2.696h25.807v2.696zm0-5.264h-25.807v-2.696h25.807v2.696zm0-5.264h-25.807v-2.697h25.807v2.697zm0-5.264h-25.807v-2.697h25.807v2.697zm0-5.264h-25.807v-2.697h25.807v2.697zm46.607 128.391h-2.7V273.306l2.7-2.953v132.628z" fill="#B3E6FC"/><path opacity=".5" d="M954.29 370.113v-92.442h-4.108v-9.373h-32.226v9.373h-4.109v116.194h-30.172v-52.64h-44.038v69.074h-21.313V286.658h-43.396v95.01h-5.136v-56.492h-7.831l-21.827-11.555v11.555h-4.75v69.845h-10.657v-94.625h-10.785v-33.125h-1.412v33.125h-10.785V419.8h279.636v-49.687H954.29zm-232.131-8.988h-17.718v-2.054h17.718v2.054zm0-4.75h-17.718v-2.054h17.718v2.054zm0-4.751h-17.718v-2.054h17.718v2.054zm0-4.75h-17.718v-2.054h17.718v2.054zm0-4.879h-17.718v-2.054h17.718v2.054zm0-4.751h-17.718v-2.054h17.718v2.054zm0-4.75h-17.718v-2.054h17.718v2.054zm0-4.75h-17.718v-2.055h17.718v2.055zm0-4.751h-17.718v-2.054h17.718v2.054zm0-4.75h-17.718v-2.055h17.718v2.055zm0-4.751h-17.718v-2.054h17.718v2.054zm0-4.75h-17.718v-2.055h17.718v2.055zm0-4.751h-17.718v-2.054h17.718v2.054zm62.142 28.375h-5.264v-5.264h5.264v5.264zm0-8.859h-5.264v-5.264h5.264v5.264zm0-8.731h-5.264v-5.264h5.264v5.264zm0-8.859h-5.264v-5.264h5.264v5.264zm0-8.731h-5.264v-5.264h5.264v5.264zm10.014 35.18h-5.264v-5.264h5.264v5.264zm0-8.859h-5.264v-5.264h5.264v5.264zm0-8.731h-5.264v-5.264h5.264v5.264zm0-8.859h-5.264v-5.264h5.264v5.264zm0-8.731h-5.264v-5.264h5.264v5.264zm10.015 35.18h-5.264v-5.264h5.264v5.264zm0-8.859h-5.264v-5.264h5.264v5.264zm0-8.731h-5.264v-5.264h5.264v5.264zm0-8.859h-5.264v-5.264h5.264v5.264zm0-8.731h-5.264v-5.264h5.264v5.264zm10.014 35.18h-5.264v-5.264h5.264v5.264zm0-8.859h-5.264v-5.264h5.264v5.264zm0-8.731h-5.264v-5.264h5.264v5.264zm0-8.859h-5.264v-5.264h5.264v5.264zm144.055 107.592h-5.521v-5.521h5.521v5.521zm0-10.913h-5.521v-5.521h5.521v5.521zm0-11.042h-5.521v-5.521h5.521v5.521zm0-10.913h-5.521v-5.521h5.521v5.521zm10.143 32.868h-5.521v-5.521h5.521v5.521zm0-10.913h-5.521v-5.521h5.521v5.521zm0-11.042h-5.521v-5.521h5.521v5.521zm0-10.913h-5.521v-5.521h5.521v5.521zm10.143 32.868h-5.521v-5.521h5.521v5.521zm0-10.913h-5.521v-5.521h5.521v5.521zm0-11.042h-5.521v-5.521h5.521v5.521zm0-10.913h-5.521v-5.521h5.521v5.521z" fill="#B3E6FC"/><path opacity=".5" d="M1082.81 360.227v-82.556h-4.11v-9.373h-32.22v9.373h-4.11v116.194h-30.18v-52.64h-44.033v69.074h-21.313V286.658h-43.396v95.01h-5.136v-56.492h-7.832l-21.826-11.555v11.555h-4.751v69.845h-10.656v-94.625h-10.785v-33.125h-1.412v33.125h-10.785V419.8H1109.9v-59.445h-27.09v-.128zm-232.131.898h-17.718v-2.054h17.718v2.054zm0-4.75h-17.718v-2.054h17.718v2.054zm0-4.751h-17.718v-2.054h17.718v2.054zm0-4.75h-17.718v-2.054h17.718v2.054zm0-4.879h-17.718v-2.054h17.718v2.054zm0-4.751h-17.718v-2.054h17.718v2.054zm0-4.75h-17.718v-2.054h17.718v2.054zm0-4.75h-17.718v-2.055h17.718v2.055zm0-4.751h-17.718v-2.054h17.718v2.054zm0-4.75h-17.718v-2.055h17.718v2.055zm0-4.751h-17.718v-2.054h17.718v2.054zm0-4.75h-17.718v-2.055h17.718v2.055zm0-4.751h-17.718v-2.054h17.718v2.054zm62.141 28.375h-5.264v-5.264h5.264v5.264zm0-8.859h-5.264v-5.264h5.264v5.264zm0-8.731h-5.264v-5.264h5.264v5.264zm0-8.859h-5.264v-5.264h5.264v5.264zm0-8.731h-5.264v-5.264h5.264v5.264zm10.015 35.18h-5.264v-5.264h5.264v5.264zm0-8.859h-5.264v-5.264h5.264v5.264zm0-8.731h-5.264v-5.264h5.264v5.264zm0-8.859h-5.264v-5.264h5.264v5.264zm0-8.731h-5.264v-5.264h5.264v5.264zm10.014 35.18h-5.264v-5.264h5.264v5.264zm0-8.859h-5.264v-5.264h5.264v5.264zm0-8.731h-5.264v-5.264h5.264v5.264zm0-8.859h-5.264v-5.264h5.264v5.264zm0-8.731h-5.264v-5.264h5.264v5.264zm10.015 35.18H937.6v-5.264h5.264v5.264zm0-8.859H937.6v-5.264h5.264v5.264zm0-8.731H937.6v-5.264h5.264v5.264zm0-8.859H937.6v-5.264h5.264v5.264zm146.876 93.084h-4.75v-4.751h4.75v4.751zm0-9.501h-4.75v-4.751h4.75v4.751zm0-9.501h-4.75v-4.751h4.75v4.751zm0-9.373h-4.75v-4.75h4.75v4.75zm8.86 28.375h-4.75v-4.751h4.75v4.751zm0-9.501h-4.75v-4.751h4.75v4.751zm0-9.501h-4.75v-4.751h4.75v4.751zm0-9.373h-4.75v-4.75h4.75v4.75zm8.73 28.375h-4.75v-4.751h4.75v4.751zm0-9.501h-4.75v-4.751h4.75v4.751zm0-9.501h-4.75v-4.751h4.75v4.751zm0-9.373h-4.75v-4.75h4.75v4.75z" fill="#B3E6FC"/><path opacity=".5" d="M1109.32 356.946v-88.764h3.68v-10.078h28.93v10.078h3.69v124.932h27.08v-56.599h39.53v74.27h19.13v-132.94h38.95V380h4.61v-60.741h7.03l19.59-12.424v12.424h4.27v75.098h9.56V292.616h9.68V257h1.27v35.616h9.68V421h-251v-63.916h24.32v-.138zm208.36.966h15.9v-2.208h-15.9v2.208zm0-5.107h15.9v-2.209h-15.9v2.209zm0-5.108h15.9v-2.209h-15.9v2.209zm0-5.108h15.9v-2.209h-15.9v2.209zm0-5.246h15.9v-2.208h-15.9v2.208zm0-5.107h15.9v-2.209h-15.9v2.209zm0-5.108h15.9v-2.209h-15.9v2.209zm0-5.108h15.9v-2.209h-15.9v2.209zm0-5.108h15.9v-2.208h-15.9v2.208zm0-5.107h15.9v-2.209h-15.9v2.209zm0-5.108h15.9v-2.209h-15.9v2.209zm0-5.108h15.9v-2.209h-15.9v2.209zm0-5.108h15.9v-2.208h-15.9v2.208zm-55.78 30.509h4.72v-5.66h-4.72v5.66zm0-9.525h4.72v-5.66h-4.72v5.66zm0-9.388h4.72v-5.659h-4.72v5.659zm0-9.525h4.72v-5.66h-4.72v5.66zm0-9.387h4.72v-5.66h-4.72v5.66zm-8.99 37.825h4.72v-5.66h-4.72v5.66zm0-9.525h4.72v-5.66h-4.72v5.66zm0-9.388h4.72v-5.659h-4.72v5.659zm0-9.525h4.72v-5.66h-4.72v5.66zm0-9.387h4.72v-5.66h-4.72v5.66zm-8.99 37.825h4.73v-5.66h-4.73v5.66zm0-9.525h4.73v-5.66h-4.73v5.66zm0-9.388h4.73v-5.659h-4.73v5.659zm0-9.525h4.73v-5.66h-4.73v5.66zm0-9.387h4.73v-5.66h-4.73v5.66zm-8.99 37.825h4.73v-5.66h-4.73v5.66zm0-9.525h4.73v-5.66h-4.73v5.66zm0-9.388h4.73v-5.659h-4.73v5.659zm0-9.525h4.73v-5.66h-4.73v5.66zm-131.84 100.084h4.27v-5.107h-4.27v5.107zm0-10.215h4.27v-5.108h-4.27v5.108zm0-10.216h4.27v-5.107h-4.27v5.107zm0-10.077h4.27v-5.108h-4.27v5.108zm-7.95 30.508h4.27v-5.107h-4.27v5.107zm0-10.215h4.27v-5.108h-4.27v5.108zm0-10.216h4.27v-5.107h-4.27v5.107zm0-10.077h4.27v-5.108h-4.27v5.108zm-7.84 30.508h4.27v-5.107h-4.27v5.107zm0-10.215h4.27v-5.108h-4.27v5.108zm0-10.216h4.27v-5.107h-4.27v5.107zm0-10.077h4.27v-5.108h-4.27v5.108z" fill="#B3E6FC"/><path d="M1249.34 422.236h-70.91L1169 251h93l-12.66 171.236z" fill="#B1DFF3"/><path d="M1239.29 276.729h-16.64v19.188h16.64v-19.188z" fill="#6AB1D0"/><path d="M1239.9 296.645h-17.98V276h17.98v20.645zm-16.64-1.335h15.18v-17.853h-15.18v17.853z" fill="#fff"/><path d="M1239.29 289.116h-16.64v.729h16.64v-.729z" fill="#fff"/><path d="M1215.25 276.729h-16.64v19.188h16.64v-19.188z" fill="#6AB1D0"/><path d="M1215.97 296.646H1198V276h17.97v20.646zm-16.63-1.336h15.18v-17.853h-15.18v17.853z" fill="#fff"/><path d="M1214.88 289.116h-16.64v.729h16.64v-.729z" fill="#fff"/><path d="M1238.29 316.729h-16.64v19.188h16.64v-19.188z" fill="#6AB1D0"/><path d="M1238.9 336.645h-17.98V316h17.98v20.645zm-16.64-1.335h15.18v-17.853h-15.18v17.853z" fill="#fff"/><path d="M1238.29 329.116h-16.64v.729h16.64v-.729z" fill="#fff"/><path d="M1214.25 316.729h-16.64v19.188h16.64v-19.188z" fill="#6AB1D0"/><path d="M1214.97 336.646H1197V316h17.97v20.646zm-16.63-1.336h15.18v-17.853h-15.18v17.853z" fill="#fff"/><path d="M1213.88 329.116h-16.64v.729h16.64v-.729z" fill="#fff"/><path d="M1240.29 356.729h-16.64v19.188h16.64v-19.188z" fill="#6AB1D0"/><path d="M1240.9 376.645h-17.98V356h17.98v20.645zm-16.64-1.335h15.18v-17.853h-15.18v17.853z" fill="#fff"/><path d="M1240.29 369.116h-16.64v.729h16.64v-.729z" fill="#fff"/><path d="M1216.25 356.729h-16.64v19.188h16.64v-19.188z" fill="#6AB1D0"/><path d="M1216.97 376.646H1199V356h17.97v20.646zm-16.63-1.336h15.18v-17.853h-15.18v17.853z" fill="#fff"/><path d="M1215.88 369.116h-16.64v.729h16.64v-.729z" fill="#fff"/><path d="M975.203 422.236h73.957L1059 251h-93l9.203 171.236z" fill="#B1DFF3"/><path d="M984.656 277.729h16.634v19.188h-16.634v-19.188z" fill="#6AB1D0"/><path d="M984.049 297.646h17.971V277h-17.971v20.646zm16.641-1.336h-15.184v-17.853h15.184v17.853z" fill="#fff"/><path d="M984.656 290.116h16.634v.729h-16.634v-.729z" fill="#fff"/><path d="M1008.7 277.729h16.64v19.188h-16.64v-19.188z" fill="#6AB1D0"/><path d="M1007.97 297.646h17.98V277h-17.98v20.646zm16.64-1.336h-15.18v-17.853h15.18v17.853z" fill="#fff"/><path d="M1009.07 290.116h16.63v.729h-16.63v-.729z" fill="#fff"/><path d="M984.607 317.729h16.643v19.188h-16.643v-19.188z" fill="#6AB1D0"/><path d="M984 337.646h17.97V317H984v20.646zm16.64-1.336h-15.183v-17.853h15.183v17.853z" fill="#fff"/><path d="M984.607 330.116h16.643v.729h-16.643v-.729z" fill="#fff"/><path d="M1008.65 317.729h16.64v19.188h-16.64v-19.188z" fill="#6AB1D0"/><path d="M1007.92 337.646h17.98V317h-17.98v20.646zm16.64-1.336h-15.18v-17.853h15.18v17.853z" fill="#fff"/><path d="M1009.02 330.116h16.64v.729h-16.64v-.729z" fill="#fff"/><path d="M984.607 357.729h16.643v19.188h-16.643v-19.188z" fill="#6AB1D0"/><path d="M984 377.646h17.97V357H984v20.646zm16.64-1.336h-15.183v-17.853h15.183v17.853z" fill="#fff"/><path d="M984.607 370.116h16.643v.729h-16.643v-.729z" fill="#fff"/><path d="M1008.65 357.729h16.64v19.188h-16.64v-19.188z" fill="#6AB1D0"/><path d="M1007.92 377.646h17.98V357h-17.98v20.646zm16.64-1.336h-15.18v-17.853h15.18v17.853z" fill="#fff"/><path d="M1009.02 370.116h16.64v.729h-16.64v-.729z" fill="#fff"/><path d="M1187 231h-150v192h150V231z" fill="#88CEED"/><path d="M1037 295.846h150m-150 55.951h150" stroke="#BBECFC" stroke-width="2.054" stroke-miterlimit="10"/><path d="M1081.94 250.534h-25.03v27.678h25.03v-27.678z" fill="#fff"/><path d="M1082.95 279.328h-27.05v-29.91h27.05v29.91zm-25.02-2.232h22.99v-25.445h-22.99v25.445z" fill="#A7DDF3"/><path d="M1084.85 276.278H1054v9.003h30.85v-9.003z" fill="#46A6D2"/><path d="M1081.94 262.662h-25.03v2.232h25.03v-2.232zm2.91 22.619H1054v3.496h30.85v-3.496z" fill="#A7DDF3"/><path d="M1123.81 250.535h-25.03v27.677h25.03v-27.677z" fill="#fff"/><path d="M1124.82 279.328h-27.06v-29.909h27.06v29.909zm-24.96-2.232h23v-25.445h-23v25.445z" fill="#A7DDF3"/><path d="M1126.78 276.278h-30.84v9.003h30.84v-9.003z" fill="#46A6D2"/><path d="M1123.81 262.662h-25.03v2.232h25.03v-2.232zm2.97 22.619h-30.84v3.497h30.84v-3.497z" fill="#A7DDF3"/><path d="M1165.74 250.535h-25.03v27.677h25.03v-27.677z" fill="#fff"/><path d="M1166.76 279.328h-27.06v-29.909h27.06v29.909zm-25.03-2.232h23v-25.445h-23v25.445z" fill="#A7DDF3"/><path d="M1168.65 276.278h-30.84v9.003h30.84v-9.003z" fill="#46A6D2"/><path d="M1165.74 262.662h-25.03v2.232h25.03v-2.232zm2.91 22.619h-30.84v3.497h30.84v-3.497z" fill="#A7DDF3"/><path d="M1082.21 305.116h-25.03v27.678h25.03v-27.678z" fill="#fff"/><path d="M1083.22 333.91h-27.05V304h27.05v29.91zm-25.03-2.232h23v-25.446h-23v25.446z" fill="#A7DDF3"/><path d="M1085.12 330.859h-30.85v9.003h30.85v-9.003z" fill="#46A6D2"/><path d="M1082.21 317.244h-25.03v2.232h25.03v-2.232zm2.91 22.618h-30.85v3.497h30.85v-3.497z" fill="#A7DDF3"/><path d="M1124.08 305.116h-25.03v27.678h25.03v-27.678z" fill="#fff"/><path d="M1125.09 333.91h-27.06V304h27.06v29.91zm-24.96-2.232h23v-25.446h-23v25.446z" fill="#A7DDF3"/><path d="M1127.05 330.859h-30.84v9.003h30.84v-9.003z" fill="#46A6D2"/><path d="M1124.08 317.244h-25.03v2.232h25.03v-2.232zm2.97 22.618h-30.84v3.497h30.84v-3.497z" fill="#A7DDF3"/><path d="M1166.01 305.116h-25.03v27.678h25.03v-27.678z" fill="#fff"/><path d="M1167.03 333.91h-27.06V304h27.06v29.91zm-25.03-2.232h23v-25.446h-23v25.446z" fill="#A7DDF3"/><path d="M1168.92 330.859h-30.84v9.003h30.84v-9.003z" fill="#46A6D2"/><path d="M1166.01 317.244h-25.03v2.232h25.03v-2.232zm2.91 22.618h-30.84v3.497h30.84v-3.497z" fill="#A7DDF3"/><path d="M1186.98 221.145h-149.82v13.021h149.82v-13.021z" fill="#88CEED"/><path d="M1152.48 228.437L1067 228v-15.411c2.5-5.589 7.7-7.589 11.49-7.589h73.99c5.52 0 9.02 2.5 11.52 7.589V228l-11.52.437z" fill="#88CEED"/><path d="M1186.98 230.743h-149.82v3.497h149.82v-3.497z" fill="#A8DCED"/><path d="M1149.42 362.431h-75.84v34.566h75.84v-34.566z" fill="#fff"/><path d="M1150.85 398.318h-78.59V361h78.59v37.318zm-75.84-2.753h72.98v-31.703h-72.98v31.703z" fill="#A7DDF3"/><path d="M1150.85 396.887h-78.59v7.155h78.59v-7.155zm4.41 7.265h-87.41v7.155h87.41v-7.155zm3.74 7.155h-95v7.155h95v-7.155zm-46.78-48.216h-3.09v32.584h3.09v-32.584z" fill="#A7DDF3"/><path d="M1150.85 402.17h-78.59v1.982h78.59v-1.982zm4.41 6.935h-87.41v2.202h87.41v-2.202zm3.74 7.486h-95v1.871h95v-1.871z" fill="#46A6D2"/><path d="M1081.96 215.053v-2.556h9.21v2.556h-3.15V223h-2.91v-7.947h-3.15zM1092.5 223v-8.115h2.86v1.633c.49-1.177 1.29-1.765 2.42-1.765h.14v2.996h-.24c-1.55 0-2.32.91-2.32 2.731V223h-2.86zm6.38-2.358c0-.821.29-1.451.86-1.89.57-.44 1.35-.659 2.32-.659.73 0 1.38.105 1.96.315v-.132c0-.879-.54-1.318-1.63-1.318-.74 0-1.48.148-2.23.446l-.59-2.007a8.66 8.66 0 0 1 3.29-.629c1.4 0 2.43.329 3.09.988.58.567.87 1.426.87 2.578V223H1104v-.842c-.62.683-1.41 1.025-2.38 1.025-.8 0-1.46-.222-1.97-.666-.51-.45-.77-1.075-.77-1.875zm2.75-.132c0 .273.09.49.28.652.18.156.43.234.72.234.42 0 .76-.122 1.02-.366.27-.244.4-.567.4-.967v-.381a2.921 2.921 0 0 0-1.12-.205c-.41 0-.73.093-.95.278a.923.923 0 0 0-.35.755zm6.36-5.625h3l1.56 4.739 1.56-4.739h2.96l-3.24 8.174h-2.59l-3.25-8.174zm9.93 4.065c0-.586.1-1.14.3-1.663.2-.522.48-.972.84-1.348.36-.38.79-.681 1.3-.9a4.041 4.041 0 0 1 1.65-.337c.68 0 1.29.119 1.82.359.53.234.96.559 1.29.974.33.41.57.879.74 1.406.17.527.25 1.096.25 1.706 0 .259 0 .455-.01.586h-5.43c.11.435.31.767.62.996.31.225.68.337 1.13.337.64 0 1.24-.275 1.8-.827l1.58 1.303c-.86 1.104-2.04 1.656-3.53 1.656-.85 0-1.6-.176-2.26-.528a3.794 3.794 0 0 1-1.54-1.494c-.37-.644-.55-1.386-.55-2.226zm2.7-.674h2.82c-.05-.454-.2-.813-.45-1.077-.25-.263-.57-.395-.96-.395-.36 0-.67.134-.93.403-.24.263-.41.62-.48 1.069zm7.53 4.724v-10.95h2.85V223h-2.85zm4.72-5.823v-2.292h.96v-2.058h2.84v2.058h1.89v2.292h-1.89v2.747c0 .283.07.491.19.622.13.127.33.191.6.191.34 0 .7-.091 1.07-.271v2.234c-.56.312-1.22.468-1.97.468-.89 0-1.57-.212-2.04-.637-.46-.429-.69-1.113-.69-2.051v-3.303h-.96zm7.1 1.773c0-.572.12-1.116.34-1.634.23-.522.54-.974.93-1.355.4-.385.87-.69 1.44-.915a4.69 4.69 0 0 1 1.8-.344c.84 0 1.61.19 2.29.571.69.381 1.22.896 1.6 1.545.38.65.58 1.36.58 2.132a4.03 4.03 0 0 1-.35 1.64c-.22.518-.53.97-.92 1.355a4.43 4.43 0 0 1-1.43.916c-.56.224-1.16.337-1.8.337a4.84 4.84 0 0 1-1.8-.337 4.407 4.407 0 0 1-1.42-.908c-.39-.381-.7-.833-.92-1.355a4.215 4.215 0 0 1-.34-1.648zm2.78 0c0 .503.16.935.49 1.296.33.357.74.535 1.24.535s.91-.176 1.22-.528c.31-.351.47-.786.47-1.303 0-.503-.16-.933-.49-1.289a1.596 1.596 0 0 0-1.23-.542c-.5 0-.91.178-1.23.534-.31.352-.47.784-.47 1.297z" fill="#fff"/></g><path fill-rule="evenodd" clip-rule="evenodd" d="M801.275 364.652c-.01 1.325-1.203 2.419-2.698 2.408-1.496-.012-2.734-1.07-2.724-2.394l-.454-38.078c.01-1.325 1.203-2.419 2.698-2.408 1.496.012 2.734 1.07 2.724 2.394l.454 38.078z" fill="#2480A9"/><path fill-rule="evenodd" clip-rule="evenodd" d="M795.85 365.052a.635.635 0 0 0-.06-.332l-.292-26.82 5.422.042.254 23.62c-2.006 1.529-4.074 2.948-5.324 3.49z" fill="#46A6D2"/><path fill-rule="evenodd" clip-rule="evenodd" d="M774.303 411.348l.132-49.386c.029-3.807 3.543-6.87 7.843-6.892l21.064.052c4.3.033 7.766 3.15 7.799 6.958l-.132 49.386c-.03 3.807-3.543 6.87-7.844 6.892l-21.064-.052c-4.299-.034-7.828-3.151-7.798-6.958z" fill="#2480A9"/><path fill-rule="evenodd" clip-rule="evenodd" d="M784.086 355.084l3.863.03-1.173 63.173-3.926.024 1.236-63.227z" fill="#ADDEF3"/><path d="M808.588 418.289c4.646.036 8.438-3.27 8.47-7.384.032-4.114-3.709-7.478-8.355-7.513-4.647-.036-8.439 3.27-8.471 7.384-.031 4.114 3.709 7.478 8.356 7.513z" fill="#B1DFF3"/><path d="M808.614 414.979c2.581.02 4.688-1.817 4.706-4.102.017-2.286-2.061-4.155-4.642-4.175-2.581-.02-4.688 1.817-4.706 4.102-.017 2.286 2.061 4.155 4.642 4.175z" fill="#2480A9"/><path d="M728.331 426.634l-6.363 11.452 17.237-7.288-3.124-7.519-7.75 3.355z" fill="#1C1A33"/><path d="M722.778 332.814l-8.676 42.919 13.419 51.248 12.378-5.09-12.031-47.199 8.561-16.08-2.198-26.029-11.453.231z" fill="#64C1EA"/><path d="M732.38 366.131l-.926-17.584-2.545-1.619 3.008 20.129.463-.926zm1.735 33.317l1.272 24.641-1.966.578.694-25.219z" fill="#4AA0C7"/><path d="M737.47 430.567l-9.949 8.561 18.741-.81-.347-8.098-8.445.347z" fill="#1C1A33"/><path d="M730.644 330.963l5.09 99.72h11.453l3.008-98.447-19.551-1.273z" fill="#64C1EA"/><path d="M722.084 305.397l-2.777 17.584c-.115.694-.115 1.388-.115 2.082l.694 21.98 5.784-28.458-3.586-13.188z" fill="#F2CECE"/><path d="M725.554 289.895s-5.437 4.165-6.131 21.633l7.751 2.661-1.62-24.294z" fill="#FD9264"/><path d="M723.703 313.032l.232-10.99-1.851 10.412 1.619.578z" fill="#D87C54"/><path d="M740.825 283.301l11.105 7.173c1.157.81 1.735 2.198 1.62 3.586l-3.355 38.176-27.417.578 1.851-40.721c0-1.041.578-2.082 1.504-2.776l8.098-5.669 6.594-.347z" fill="#FD9264"/><path d="M757.83 305.397l4.049 23.715c.231 1.157 0 2.43-.694 3.355l-12.957 19.319-5.784-5.784s9.949-15.502 9.833-15.964c0-.579-5.553-19.782-5.553-19.782l11.106-4.859z" fill="#F2CECE"/><path d="M751.93 290.474s4.512 2.66 8.792 19.319l-13.882 3.355-4.396-11.337 9.486-11.337z" fill="#FD9264"/><path d="M747.534 312.916l-3.933-10.18 1.967 9.486 1.966.694z" fill="#D87C54"/><path d="M742.444 285.037l-.116-6.71-9.833-3.008.116 8.677c-.231 2.197.116 3.123.578 3.933.579.925 1.851 1.157 2.892 1.157 6.594-.116 6.363-4.049 6.363-4.049z" fill="#F2CECE"/><path d="M729.025 280.178l13.303-.116 1.041-16.89c0-3.123-2.545-5.668-5.784-5.668h-6.825c-3.239 0-5.9 2.661-5.9 6.015l.116 12.726c.115 2.198 1.851 3.933 4.049 3.933z" fill="#F2CECE"/><path d="M742.907 275.204s-4.975-1.736-4.975-5.206l-3.47.115v-2.545s-2.198-.694-1.967-4.974l-8.329.116 1.967-5.9 9.023-.81 7.519 2.082c.347.116.694.347.926.579l3.123 4.396c.347.462.347.925.232 1.388l-1.851 6.247-2.198 4.512z" fill="#1C1A33"/><path d="M726.248 267.337l-2.776 4.049c-.231.463 0 .925.463.925h2.776l-.463-4.974zm12.378 5.321a2.545 2.545 0 1 0 .001-5.09 2.545 2.545 0 0 0-.001 5.09z" fill="#F2CECE"/><path d="M732.611 280.062s2.082-.463 3.933-2.545l-3.817 6.131-.116-3.586z" fill="#D7B8B8"/><path d="M732.495 262.594l-7.519.116s-.116 0-.232-.116c-2.429-1.273-1.388-4.974 1.273-4.974l8.561-.116-2.083 5.09z" fill="#1C1A33"/><path d="M609.523 427.559s3.24-7.404 3.818-10.411l-7.519-3.008-3.702 9.949 7.403 3.47z" fill="#E49E9D"/><path d="M609.523 427.559l5.785 11.337-16.659-7.635 3.355-7.172 7.519 3.47z" fill="#1C1A33"/><path d="M614.961 337.904s-5.438 10.527 0 22.443c0 0-5.669 35.746-14.23 56.222l15.502 4.512s15.617-42.109 22.096-82.02l-23.368-1.157z" fill="#FD9264"/><path d="M667.712 426.749s-1.735-7.866-2.892-10.643l-7.866 1.967 2.776 10.296 7.982-1.62z" fill="#E49E9D"/><path d="M642.725 336.747s18.393 44.886 25.219 82.599l-14.923 3.007s-8.098-30.772-23.021-65.477v-20.129h12.725z" fill="#FD9264"/><path d="M667.712 426.749l11.338 5.9-18.047 3.471-1.388-7.751 8.097-1.62z" fill="#1C1A33"/><path d="M633.239 364.396l4.049-19.435-1.504 25.913-2.545-6.478z" fill="#D87C54"/><path d="M661.35 291.978l-.694-3.818c-.347-1.388.231-2.776 1.388-3.586 1.041-.694 2.429-1.388 3.586-1.041l-4.28 8.445z" fill="#F2CECE"/><path d="M667.365 296.836a189.12 189.12 0 0 1 1.851-3.47c.463-.926.81-1.967.81-3.008 0-2.314-.463-6.362-2.661-6.71l-6.015 7.289.462 4.511 5.553 1.388z" fill="#F2CECE"/><path d="M659.036 299.96l2.661-5.669 5.668 2.545-4.164 7.867-4.165-4.743z" fill="#F2CECE"/><path d="M636.246 291.284s4.975.694 7.635 7.403l9.487 20.708c1.156 2.545.231 5.437-2.083 6.941-2.776 1.735-6.594.694-7.982-2.314l-8.908-18.509 1.851-14.229z" fill="#64C1EA"/><path d="M658.92 298.34l-13.188 18.972 6.826 7.751 14.807-21.401-8.445-5.322z" fill="#64C1EA"/><path d="M667.712 276.013l-7.288 15.039c-.115.232 0 .579.347.579l4.049.347c.463 0 .926-.232 1.157-.694l6.941-14.461c.116-.347-.116-.694-.463-.694l-4.28-.347c-.231-.116-.347 0-.463.231z" fill="#171417"/><path d="M667.712 276.013l-7.056 14.692 4.049.347 7.056-14.923-3.702-.347c-.115-.116-.231 0-.347.231z" fill="#fff"/><path d="M642.956 307.364l.231 16.658-3.817-7.866 3.586-8.792z" fill="#4AA0C7"/><path d="M640.411 299.034s-.694-8.097-6.131-8.097c-1.273 0-1.851.694-2.198 1.735l-3.239-1.735-9.834 4.511s-4.511 14.808-4.048 42.456c0 0 18.046 3.124 27.764-1.157l-1.273-20.476s4.28-11.568-1.041-17.237z" fill="#64C1EA"/><path d="M615.77 313.263l2.545-2.082-3.007 10.99.462-8.908z" fill="#4AA0C7"/><path d="M615.236 346.046c2.188 2.327 5.622 2.652 7.67.727 2.048-1.926 1.935-5.374-.254-7.701-2.188-2.327-5.622-2.652-7.67-.727-2.048 1.926-1.934 5.373.254 7.701z" fill="#F2CECE"/><path d="M618.431 338.367c-.347-.463-4.859-6.363-4.859-6.363l-3.933 3.124 4.859 6.825 3.933-3.586z" fill="#F2CECE"/><path d="M617.621 296.258c-5.321 3.818-14.229 10.527-20.938 17.353-1.851 1.851-2.198 4.743-.926 6.941 1.735 3.123 6.016 3.933 8.792 1.735l20.36-16.427c2.777-2.198 3.008-6.247.579-8.792-1.967-2.314-5.437-2.545-7.867-.81z" fill="#64C1EA"/><path d="M618.662 334.896l-7.635 5.9-15.154-20.244 9.948-7.636 12.841 21.98z" fill="#64C1EA"/><path d="M626.645 291.746v-6.825l9.254-2.198-.115 7.982c0 2.429.115 3.008-.579 3.702s-1.619 1.041-2.661 1.041c-6.246-.116-5.899-3.702-5.899-3.702z" fill="#F2CECE"/><path d="M637.287 287.119l-10.642-.116-.926-15.733c0-2.892 2.429-5.321 5.322-5.205h6.362c3.008 0 5.437 2.545 5.437 5.552l-.115 10.065c.115 3.008-2.43 5.437-5.438 5.437z" fill="#F2CECE"/><path d="M641.683 275.203l2.43 3.818c.231.347 0 .926-.463.926h-2.429l.462-4.744z" fill="#F2CECE"/><path d="M635.784 287.119s-1.967-.463-3.587-2.429l3.587 5.784v-3.355z" fill="#D7B8B8"/><path d="M630.115 277.517s10.643-1.157 12.378-7.751c.232-.809.116-1.966-.694-3.007-1.619-2.43-7.866-5.322-14.576-1.736-9.602 5.09-3.355 15.386-.694 17.584 2.661 2.198 2.776-5.784 2.776-5.784l.81.694z" fill="#1C1A33"/><path d="M630.115 279.484a2.892 2.892 0 1 0 0-5.785 2.892 2.892 0 0 0 0 5.785z" fill="#F2CECE"/><path d="M616.921 272.556c3.894 1.021 7.825-1.107 8.781-4.754.956-3.646-1.426-7.429-5.319-8.45-3.894-1.021-7.825 1.108-8.781 4.754-.956 3.646 1.426 7.43 5.319 8.45z" fill="#1C1A33"/><path d="M1229.35 448.123c-.09-.027.19-1.237.76-3.249l.24-.862c.08-.288.16-.575.2-.924.19-.671.38-1.341.53-2.073.22-.766.43-1.533.61-2.361.24-.862.48-1.724.69-2.648.95-3.763 1.99-8.223 3.03-13.25 1.04-5.028 1.97-10.553 2.81-16.359.82-5.866 1.33-11.403 1.68-16.522.34-5.119.59-9.698.53-13.537a69.38 69.38 0 0 0-.26-5.184c-.14-1.536-.29-2.82-.47-3.85-.39-2.123-.64-3.276-.51-3.345.06-.034.52 1.076 1.07 3.191.27 1.058.52 2.368.72 3.87.24 1.563.38 3.256.45 5.237.19 3.927.04 8.533-.24 13.617-.25 5.146-.79 10.779-1.61 16.645-.81 5.867-1.79 11.427-2.93 16.427-1.14 5.001-2.24 9.496-3.38 13.206-.27.958-.51 1.82-.79 2.621-.24.862-.45 1.628-.76 2.368-.25.705-.5 1.41-.72 2.02-.08.287-.22.609-.3.896-.08.288-.2.514-.28.801-.46 2.196-.97 3.292-1.07 3.265z" fill="#42B0E1"/><path d="M1253.42 386.217c5.82-1.421 12.64.227 16.03 5.099-2.32 4.051-6.33 7.114-10.8 8.5-4.5 1.324-9.49.909-13.66-1.185-4.58-2.262-5.88-3.552-1.64-7.068 3-2.415 6.3-4.436 10.07-5.346zm-5.46-18.155c4.68-3.443 10.98-3.282 16.73-2.967-.35 5.687-3.71 11.049-8.58 13.871-2.72 1.615-12.18 4.6-14.65 1.069-2.03-2.892 4.28-10.321 6.5-11.973z" fill="#42B0E1"/><path d="M1227.32 399.786c-4.86-.737-9.42-3.252-12.63-6.936 2.27-2.001 4.53-4.003 7.2-5.426 2.67-1.422 5.68-2.232 8.64-1.717 3.4.589 11.8 6.19 10.34 10.482-1.34 4.066-10.35 3.975-13.55 3.597zm3.28-38.742c.01-3.15 1.56-6.124 3.45-8.642 1.89-2.518 4.21-4.711 6.23-7.141 1.52 1.972 3 3.883 4.51 5.856 1.82 2.367 3.67 4.795 4.19 7.73.68 3.494-.83 7.41-3.78 9.477-5.91 4.133-14.7.126-14.6-7.28z" fill="#42B0E1"/><path d="M1226.8 381.671c-3.65-2.466-6.13-6.154-8.57-9.781 3.75-1.792 7.78-3.093 11.92-2.761 4.11.27 8.27 2.363 10.25 6.014 5.13 9.541-8.13 10.226-13.6 6.528zm-3.06 20.37c-5.1.535-9.23 3.825-14.42 3.923.94 4.237 3.69 8.416 7.79 11.111 4.11 2.695 9.64 3.777 14.14 2.453 4.34-1.317 8.73-5.721 6.62-10.027-2.18-4.585-8.71-8.011-14.13-7.46z" fill="#42B0E1"/><path d="M1245.71 404.202c3.74-.657 7.57.414 11.05 1.849 3.43 1.373 6.64 3.199 10.26 4.313-3.55 4.174-7.46 8.555-13.16 10.317-3.95 1.171-8.65.836-12.04-1.297-6.76-4.264-4.45-13.795 3.89-15.182zm39.11-1.023c-1.18-6.682 1.51-13.365 4.14-19.604-.12.226 2.73 3.707 3.01 4.197a37.316 37.316 0 0 1 2.54 4.946c1.46 3.455 2.37 7.221 2.77 10.949.37 3.666.15 7.425-.55 11.05-.24 1.019-.6 4.533-1.85 4.595-1.01.081-3.32-3.458-3.93-4.247-2.88-3.386-5.34-7.327-6.13-11.886zm40.85-8.313c4.79-2.378 10.05-3.645 15.29-4.816-3.51 4.235-7.22 8.26-11.73 11.286-1.71 1.123-13.57 7.156-14.27 3.758-.36-1.651 3.2-4.787 4.31-5.818 1.77-1.725 4-3.221 6.4-4.41zm10.44 23.988c-4.8 3.512-11.5 3.653-17.17 1.76-3.72-1.297-7.09-3.273-10.29-5.509-2.28-1.619-5.48-4.422-1.03-5.555 6.22-1.566 13.9.166 19.54 2.879.78.371 9.34 6.122 8.95 6.425z" fill="#42B0E1"/><path d="M1311.9 420.866c5.4 3.009 10.06 7.409 14.55 11.66-5.36 1.083-11.54.285-17.34-2.263-2.89-1.275-15.69-8.517-13.18-11.948 2.44-3.396 12.34.557 15.97 2.551zm2.15-41.898c.74 6.042 1.14 12.195-.05 18.111-.77 3.66-2.19 7.289-4.34 10.355-2.06 2.936-5.19 6.555-5.99 1.114-1.03-6.846.22-13.931 3.35-20.132a32.879 32.879 0 0 1 7.03-9.448z" fill="#42B0E1"/><path d="M1247.5 465.203c.13.088 1.09-.935 2.76-2.844.21-.199.45-.495.62-.755.24-.295.51-.529.75-.824.48-.591 1.11-1.189 1.67-1.909.6-.66 1.26-1.354 1.94-2.143.69-.79 1.41-1.518 2.22-2.377 3.04-3.331 6.82-7.233 11.09-11.412 4.26-4.179 9.08-8.668 14.31-13.146a297.868 297.868 0 0 1 15.18-12.18c4.76-3.574 9.21-6.721 13.03-9.114a58.56 58.56 0 0 1 5.23-3.03c1.57-.802 2.95-1.5 4.12-1.998 2.35-.998 3.62-1.47 3.61-1.627-.04-.061-1.44.166-3.83.945a51.596 51.596 0 0 0-4.32 1.788 57.753 57.753 0 0 0-5.46 2.914c-3.95 2.305-8.43 5.392-13.29 8.938a256.624 256.624 0 0 0-15.37 12.127c-5.29 4.513-10.08 9.063-14.37 13.338a216.87 216.87 0 0 0-10.85 11.684c-.72.885-1.46 1.709-2.09 2.464-.68.79-1.25 1.511-1.81 2.231-.56.721-1.1 1.346-1.57 1.936-.24.295-.48.59-.71.885-.24.296-.42.556-.59.817-1.57 2.093-2.4 3.204-2.27 3.292z" fill="#42B0E1"/><path d="M1266.87 415.874c-2.05-7.08-2.04-14.513-1.96-21.823 5.98 4.46 11.44 9.86 14.7 16.502a28.971 28.971 0 0 1 2.94 11.099c.11 2.199.25 9.624-2.67 10.304-2.65.603-6.68-4.395-8.09-6.184-2.28-2.911-3.87-6.297-4.92-9.898z" fill="#42B0E1"/><path d="M1300.93 434.225c7.14 4.215 12.83 10.453 18.09 16.776-7.81 2.621-16.58.377-23.63-3.968-3.87-2.424-7.32-5.403-10.54-8.677-1.52-1.563-3.08-3.186-4.52-4.879-1.5-1.659-3.45-2.822-.78-3.678 6.83-2.069 15.64.961 21.38 4.426z" fill="#42B0E1"/><path d="M1239.59 448.429c-.1-.027.73-1.138 2.24-3.039.18-.261.39-.46.63-.756.17-.26.41-.555.65-.85.47-.591.95-1.181 1.51-1.902.54-.624 1.1-1.345 1.69-2.162.62-.755 1.21-1.571 1.93-2.457 2.66-3.438 5.77-7.528 9-12.254 3.26-4.664 6.75-9.938 10.19-15.587a257.18 257.18 0 0 0 9.09-16.258c2.61-5.105 4.93-9.724 6.56-13.709.82-1.993 1.49-3.821 2.1-5.457.55-1.602.95-3.039 1.24-4.25.6-2.361.82-3.694.92-3.667.09.026.07 1.413-.29 3.793-.22 1.176-.53 2.64-1.01 4.365-.46 1.628-1.09 3.518-1.87 5.572-1.56 4.108-3.75 8.814-6.27 13.946-2.58 5.166-5.62 10.67-9.02 16.38a236.717 236.717 0 0 1-10.35 15.596c-3.36 4.638-6.56 8.701-9.32 12.112-.75.825-1.37 1.58-2 2.335-.62.755-1.22 1.414-1.81 2.074-.6.659-1.08 1.249-1.59 1.778-.23.295-.51.529-.68.79-.27.234-.45.494-.66.694-1.85 2.012-2.85 2.974-2.88 2.913z" fill="#2480A9"/><path d="M1264.93 421.891c3.94-1.738 8.58-2.093 12.52-.271 3.89 1.76 6.78 6.027 6.21 10.307-.12.95-.42 1.847-.85 2.656-1.34 2.207-4.16 3.228-6.81 3.107-2.65-.121-5.09-1.166-7.5-2.15-4.44-1.859-9.27-3.416-13.36-5.797 1.03-3.327 6.64-6.563 9.79-7.852zm11.67-20.543c1.86-1.289 3.82-2.393 6.1-2.789 3.81-.692 8.02 1.053 9.89 4.363 1.9 3.371.99 8.076-2.2 10.281-2.07 1.488-4.83 1.75-7.41 1.751-1.45.008-2.9.017-4.36-.289-1.18-.226-2.27-.581-3.36-.937-3.65-1.174-8.71-1.145-6.87-5.173 1.42-2.652 5.72-5.478 8.21-7.207zm8.75-20.021c2.76-2.844 6.43-5.639 10.34-4.856 3.72.73 6.35 4.821 5.62 8.542-.73 3.72-4.31 6.542-8.08 6.728-1.25.062-2.49-.129-3.7-.416-1.18-.225-2.42-.416-3.59-.641-.99-.172-1.88-.317-2.77-.62-5.89-1.851-.58-5.892 2.18-8.737zm-2.65-16.593c-.68-2.359-.63-5.133.63-7.211.81-1.426 2.2-2.534 3.65-3.266 1.1-.621 2.24-1.024 3.5-1.086a5.46 5.46 0 0 1 2.48.539c2.16.964 3.83 2.929 4.32 5.235.5 2.306-.1 4.824-1.65 6.664-.6.659-1.29 1.292-2.02 1.863-1.54 1.273-5.12 4.819-7.23 4.073-1.83-.666-3.21-5.133-3.68-6.811z" fill="#2480A9"/><path d="M1280.77 379.065c-.73-2.578-2.24-5.117-4.61-6.45-3.39-1.879-8.09-.609-10.13 2.642-2.05 3.25-1.06 8.02 2.08 10.29 2.94 2.06 6.9 1.928 10.36 1.914 4.41-.059 3.15-5.162 2.3-8.396zm-10.97 22.807c.12-1.927.15-3.881-.47-5.709-1.01-3.225-4.01-5.818-7.34-6.283-3.33-.466-6.93 1.16-8.81 3.993-1.87 2.832-1.9 6.802-.12 9.674.89 1.437 2.18 2.57 3.49 3.608 2.55 1.953 5.58 3.315 8.8 3.597 5.25.434 4.22-5.121 4.45-8.88zm-18.54 10.52c-1.61-2-3.94-3.838-6.54-3.74-1.17.088-2.28.552-3.35 1.078-1.63.836-3.18 1.952-3.89 3.561-.71 1.61-.62 3.495.13 5.096.67 1.636 1.9 2.961 3.22 4.156 3.37 3.109 7.63 5.23 12.14 6.078 4.96.921 3.91-3.247 3.01-6.699-.83-3.486-2.44-6.777-4.72-9.53z" fill="#2480A9"/><path d="M1248.82 442.746c29.8-19.61 55.1-46.209 73.05-76.982l.58.318c-18.07 30.841-43.39 57.537-73.32 77.216l-.31-.552z" fill="#0098DB"/><path d="M1261.98 434.287l-.19-.621c2.67-.698 5.59-.401 8.1.766l-.28.644c-2.36-1.175-5.14-1.384-7.63-.789z" fill="#0098DB"/><path d="M1271.11 437.459c2.84.742 4.01-3.631 1.16-4.53-3.04-.952-4.1 3.761-1.16 4.53zm7.59-17.192l-.28-.648c2.28-.963 5.06-.753 7.21.621l-.38.617c-1.92-1.259-4.39-1.484-6.55-.59z" fill="#0098DB"/><path d="M1289.31 423.901c-1.26.786-3.16.408-3.95-.845-.79-1.252-.41-3.16.84-3.947 3.05-2.04 6.16 2.752 3.11 4.792zm5.86-20.413l-.23-.682c2.51-.848 5.18-.98 7.76-.414l-.12.636a14.83 14.83 0 0 0-7.41.46z" fill="#0098DB"/><path d="M1303.49 405.66c3.02 1.772 5.74-2.992 2.91-4.868-2.93-1.903-6.05 3.007-2.91 4.868zm3.91-17.137l-.34-.613c2.14-1.208 4.87-1.531 7.24-.766l-.19.671c-2.27-.739-4.78-.458-6.71.708z" fill="#0098DB"/><path d="M1313.97 386.845c-.41 1.28.35 2.786 1.61 3.291 1.28.409 2.82-.297 3.32-1.55 1.17-3.238-3.87-5.006-4.93-1.741zm3.21-12.063l-.12-.655a9.48 9.48 0 0 1 7.07.943l-.32.582c-2.07-1.094-4.45-1.45-6.63-.87z" fill="#0098DB"/><path d="M1327.83 377.344c-1.05 1.154-3.37.764-3.88-.722-1.87-4.758 7.28-3.131 3.88.722zm-6.63-14.35c.83-.954 2.34-.997 3.41-.388 1.37.846 1.88 2.899.9 4.175-2.13 2.657-6.28-1.548-4.31-3.787zm-7.28 16.666l-1.82-8.385-.69.149 1.82 8.385.69-.149z" fill="#0098DB"/><path d="M1310.89 366.053c3.54-1.025 4.75 4.27 1.6 5.559-3.39 1.427-5.1-4.473-1.6-5.559zm-12.81 33.291c1.91-3.338 2.08-7.629.43-11.138l.64-.284c1.7 3.727 1.54 8.176-.49 11.74l-.58-.318z" fill="#0098DB"/><path d="M1295.48 387.41c-.85-1.218-.53-3.091.68-3.939 1.19-.908 3.03-.653 4 .496 2.38 3.095-2.45 6.703-4.68 3.443zm-12.21 27.781a12.044 12.044 0 0 0 1.04-8.334l.65-.126a13.15 13.15 0 0 1-1.07 8.839l-.62-.379z" fill="#0098DB"/><path d="M1286.05 406.362c-1.19.909-3.12.626-3.97-.592-.91-1.183-.62-3.118.59-3.966 2.98-2.162 6.36 2.396 3.38 4.558zm-22.53 25.928c2.41-2.89 3.79-6.738 3.76-10.516l.73-.004c.03 3.935-1.44 7.913-3.94 10.934l-.55-.414z" fill="#0098DB"/><path d="M1267.32 416.104c-3.86.883-2.41 6.764 1.4 6.072 3.96-.699 2.49-6.894-1.4-6.072z" fill="#0098DB"/><path d="M1409.07 236.421c-4.05 0-7.59 1.179-10.45 3.032-.84-10.615-11.12-19.039-23.76-19.039-5.39 0-10.28 1.516-14.32 4.044-4.21-6.74-12.81-11.458-22.41-11.458-13.82 0-25.11 9.436-25.44 21.23-3.37-2.022-7.58-3.37-12.13-3.37-11.46 0-20.56 7.919-20.56 17.524 0 9.604 9.27 17.523 20.56 17.523 3.2 0 6.23-.674 8.93-1.685 2.69 3.033 6.9 4.886 11.62 4.886 6.07 0 11.29-3.033 13.48-7.413 4.72 4.549 11.46 7.413 19.21 7.413 6.74 0 12.81-2.19 17.35-5.729 2.7 3.539 7.25 5.729 12.47 5.729 6.07 0 11.29-3.033 13.48-7.413 3.04 2.527 7.25 4.043 11.8 4.043 9.43 0 17.18-6.571 17.18-14.659.17-8.087-7.58-14.658-17.01-14.658z" fill="url(#paint0_linear)"/><path d="M1022.07 174.421c-4.05 0-7.59 1.179-10.45 3.032-.84-10.615-11.12-19.039-23.758-19.039-5.392 0-10.278 1.516-14.322 4.044-4.213-6.74-12.806-11.458-22.41-11.458-13.816 0-25.105 9.436-25.442 21.23-3.37-2.022-7.583-3.37-12.132-3.37-11.457 0-20.556 7.919-20.556 17.524 0 9.604 9.267 17.523 20.556 17.523 3.202 0 6.234-.674 8.93-1.685 2.696 3.033 6.909 4.886 11.626 4.886 6.066 0 11.289-3.033 13.48-7.413 4.718 4.549 11.457 7.413 19.208 7.413 6.74 0 12.805-2.19 17.355-5.729 2.696 3.539 7.245 5.729 12.468 5.729 6.067 0 11.287-3.033 13.477-7.413 3.04 2.527 7.25 4.043 11.8 4.043 9.43 0 17.18-6.571 17.18-14.659.17-8.087-7.58-14.658-17.01-14.658z" fill="url(#paint1_linear)"/><path d="M713.706 203.236c-5.498 0-10.995 1.816-15.118 4.54-.916-14.983-15.576-26.788-33.901-26.788-7.788 0-14.66 2.271-20.157 5.903-5.956-9.535-17.867-15.891-32.069-15.891-19.699 0-35.733 13.167-36.191 29.965-5.039-3.178-10.537-4.54-16.95-4.54-16.034 0-29.32 10.897-29.32 24.518 0 13.62 13.286 24.517 29.32 24.517 4.581 0 8.704-.908 12.827-2.27 3.665 4.086 10.079 6.81 16.492 6.81 8.705 0 16.034-4.54 19.241-10.443 6.414 6.357 16.493 10.443 27.029 10.443 9.621 0 17.867-3.178 24.739-8.172 3.665 4.994 10.078 8.172 17.866 8.172 8.705 0 16.035-4.54 19.241-10.443 4.582 3.633 10.079 5.449 16.951 5.449 13.285 0 24.28-9.081 24.28-20.431.458-11.805-10.537-21.339-24.28-21.339z" fill="url(#paint2_linear)"/><path d="M145.706 218.236c-5.498 0-10.995 1.816-15.118 4.54-.916-14.983-15.576-26.788-33.9-26.788-7.789 0-14.66 2.271-20.158 5.903C70.574 192.356 58.663 186 44.46 186c-19.699 0-35.733 13.167-36.19 29.965-5.04-3.178-10.538-4.54-16.951-4.54-16.034 0-29.32 10.897-29.32 24.518 0 13.62 13.286 24.517 29.32 24.517 4.58 0 8.704-.908 12.827-2.27 3.665 4.086 10.079 6.81 16.492 6.81 8.705 0 16.034-4.54 19.241-10.443C46.294 260.914 56.373 265 66.91 265c9.62 0 17.866-3.178 24.738-8.172 3.665 4.994 10.078 8.172 17.866 8.172 8.705 0 16.035-4.54 19.241-10.443 4.582 3.633 10.079 5.449 16.951 5.449 13.285 0 24.28-9.081 24.28-20.431.458-11.805-10.537-21.339-24.28-21.339z" fill="url(#paint3_linear)"/><path d="M764.195 227.05c-2.439-.049-2.639 1.468-2.639 1.468s-.149-1.468-2.639-1.517c-2.439-.049-3.336 2.741-2.738 4.406.498 1.273 3.336 4.112 4.631 5.336a.88.88 0 0 0 1.244 0c1.295-1.175 4.233-3.965 4.731-5.238.647-1.665-.15-4.455-2.59-4.455zm6-24c-2.439-.049-2.639 1.468-2.639 1.468s-.149-1.468-2.639-1.517c-2.439-.049-3.336 2.741-2.738 4.406.498 1.273 3.336 4.112 4.631 5.336a.88.88 0 0 0 1.244 0c1.295-1.175 4.233-3.965 4.731-5.238.647-1.665-.15-4.455-2.59-4.455zm-8-24c-2.439-.049-2.639 1.468-2.639 1.468s-.149-1.468-2.639-1.517c-2.439-.049-3.336 2.741-2.738 4.406.498 1.273 3.336 4.112 4.631 5.336a.88.88 0 0 0 1.244 0c1.295-1.175 4.233-3.965 4.731-5.238.647-1.665-.15-4.455-2.59-4.455z" fill="#FD9264"/><path d="M896.4 250.8c14.028 0 25.4-11.372 25.4-25.4 0-14.028-11.372-25.4-25.4-25.4-14.028 0-25.4 11.372-25.4 25.4 0 14.028 11.372 25.4 25.4 25.4z" fill="#fff"/><path d="M895.668 208C888.14 208 882 214.21 882 221.738c0 2.986.946 5.825 2.734 8.201l10.093 13.527c.189.274.505.421.841.421.336 0 .652-.147.841-.421l10.093-13.527a13.54 13.54 0 0 0 2.734-8.201c0-7.528-6.14-13.738-13.668-13.738z" fill="#FD9264"/><path d="M909.336 221.738c0 2.986-.947 5.825-2.734 8.201l-10.093 13.527a1.007 1.007 0 0 1-.841.421V208c7.528 0 13.668 6.21 13.668 13.738z" fill="#FF6847"/><path d="M895.668 212.206c-5.215 0-9.462 4.317-9.462 9.532 0 5.131 4.121 9.462 9.462 9.462 5.299 0 9.462-4.289 9.462-9.462 0-5.215-4.247-9.532-9.462-9.532z" fill="#EBF8FB"/><path d="M905.13 221.738c0 5.173-4.163 9.462-9.462 9.462v-18.994c5.214 0 9.462 4.317 9.462 9.532z" fill="#D7F2FC"/><g filter="url(#filter0_d)" fill="#fff"><path d="M717.689 234h-87.378c-4.062 0-7.311-3.049-7.311-6.86v-30.924c0-3.812 0-11.216 5.802-11.216h90.512C725 187.178 725 192.404 725 196.216v30.924c0 3.811-3.249 6.86-7.311 6.86z"/><path d="M710.5 228.1v17.6l-17.4-17.4h17.4"/></g><path d="M629 203.688c0-3.142 2.506-5.688 5.597-5.688h27.187c3.091 0 5.597 2.546 5.597 5.688v14.624c0 3.142-2.506 5.688-5.597 5.688h-27.187c-3.091 0-5.597-2.546-5.597-5.688v-14.624z" fill="#2CA9E1"/><path d="M641.385 214.941a4.819 4.819 0 0 1-3.165-1.14l1.115-1.606c.688.549 1.39.823 2.105.823.569 0 1.018-.196 1.349-.59.33-.394.532-.925.605-1.593-.514.44-1.165.659-1.954.659-1.055 0-1.894-.274-2.518-.824-.615-.558-.922-1.327-.922-2.306 0-.97.339-1.771 1.018-2.403.688-.641 1.573-.961 2.656-.961.633 0 1.16.082 1.582.247.432.165.831.43 1.197.796.762.76 1.143 1.978 1.143 3.653 0 1.592-.367 2.865-1.101 3.817s-1.771 1.428-3.11 1.428zm-.826-5.602c.303.265.711.398 1.225.398.514 0 .917-.133 1.211-.398.293-.275.44-.627.44-1.058 0-.43-.151-.782-.454-1.057-.303-.274-.715-.412-1.238-.412-.514 0-.918.138-1.211.412-.285.266-.427.623-.427 1.071 0 .43.152.778.454 1.044zm6.183 7.661l-.178-.865c.899-.101 1.348-.503 1.348-1.208v-.151h-.853v-2.197h2.229v1.853c0 .879-.216 1.52-.647 1.923-.422.412-1.055.627-1.899.645zm7.598-2.059c-1.395 0-2.596-.481-3.605-1.442l1.279-1.524c.771.695 1.537 1.043 2.298 1.043.505 0 .899-.119 1.184-.357.284-.238.426-.572.426-1.002 0-.403-.156-.718-.468-.947-.312-.238-.724-.357-1.238-.357s-1.05.119-1.61.357l-1.225-.81.276-4.737h5.916v1.853h-4.1l-.11 1.662c.44-.11.862-.165 1.266-.165 1 0 1.812.256 2.435.769.624.512.936 1.29.936 2.334 0 1.016-.335 1.826-1.004 2.43-.661.595-1.546.893-2.656.893z" fill="#fff"/><path d="M679.599 209.956l-6.722 10.979c-.819 1.337.149 3.053 1.717 3.044l38.195-.221a2.001 2.001 0 0 0 1.779-2.893l-5.363-10.757a1.999 1.999 0 0 0-1.79-1.108h-26.111c-.696 0-1.342.362-1.705.956z" fill="#CCEEFC"/><path d="M694 194.467c5.808 0 10.533 4.511 10.533 10.071 0 7.815-10.533 14.549-10.533 14.549s-10.533-6.734-10.533-14.549c0-5.56 4.726-10.071 10.533-10.071zm5.69 10.349a5.69 5.69 0 1 0-11.379 0 5.69 5.69 0 1 0 11.379 0z" fill="#FF6847"/><path d="M698.527 204.833a4.299 4.299 0 1 1-8.598-.002 4.299 4.299 0 0 1 8.598.002z" fill="#fff"/><path d="M694 193c-6.617 0-12 5.176-12 11.538 0 8.521 10.753 15.493 11.209 15.786a1.47 1.47 0 0 0 1.582 0c.457-.293 11.209-7.265 11.209-15.786.001-6.362-5.382-11.538-12-11.538zm-.001 24.305a33.968 33.968 0 0 1-4.222-3.594c-2.21-2.232-4.842-5.635-4.842-9.173 0-4.744 4.067-8.604 9.066-8.604 4.999 0 9.066 3.86 9.066 8.604-.001 5.74-6.729 11.084-9.068 12.767z" fill="#FF6847"/><path d="M694 197.659a7.156 7.156 0 0 0-7.156 7.157 7.157 7.157 0 0 0 14.314 0 7.165 7.165 0 0 0-7.158-7.157zm0 11.38a4.223 4.223 0 1 1 4.223-4.223 4.229 4.229 0 0 1-4.223 4.223z" fill="#FFA782"/></g><defs><filter id="filter0_d" x="603" y="165" width="142" height="100.7" filterUnits="userSpaceOnUse" color-interpolation-filters="sRGB"><feFlood flood-opacity="0" result="BackgroundImageFix"/><feColorMatrix in="SourceAlpha" values="0 0 0 0 0 0 0 0 0 0 0 0 0 0 0 0 0 0 127 0"/><feOffset/><feGaussianBlur stdDeviation="10"/><feColorMatrix values="0 0 0 0 0 0 0 0 0 0.596079 0 0 0 0 0.858824 0 0 0 0.24 0"/><feBlend in2="BackgroundImageFix" result="effect1_dropShadow"/><feBlend in="SourceGraphic" in2="effect1_dropShadow" result="shape"/></filter><linearGradient id="paint0_linear" x1="1353.07" y1="214.874" x2="1353.07" y2="268.268" gradientUnits="userSpaceOnUse"><stop stop-color="#fff"/><stop offset="1" stop-color="#F1F2F6" stop-opacity="0"/></linearGradient><linearGradient id="paint1_linear" x1="973.571" y1="152.874" x2="973.571" y2="206.268" gradientUnits="userSpaceOnUse"><stop stop-color="#fff"/><stop offset="1" stop-color="#fff" stop-opacity="0"/></linearGradient><linearGradient id="paint2_linear" x1="634.53" y1="172.958" x2="634.53" y2="248.065" gradientUnits="userSpaceOnUse"><stop offset=".094" stop-color="#fff"/><stop offset="1" stop-color="#fff" stop-opacity="0"/></linearGradient><linearGradient id="paint3_linear" x1="66.531" y1="187.958" x2="66.531" y2="263.065" gradientUnits="userSpaceOnUse"><stop offset=".094" stop-color="#fff"/><stop offset="1" stop-color="#F1F2F6" stop-opacity="0"/></linearGradient><clipPath id="clip0"><path fill="#fff" d="M0 0h1400v526H0z"/></clipPath></defs></svg>